<svg xmlns="http://www.w3.org/2000/svg" xmlns:xlink="http://www.w3.org/1999/xlink" width="1020" height="1015.24"><rect width="1020" height="1015.24" rx="5" ry="5" class="a"/><svg y="0%" x="0%"><circle cx="20" cy="20" r="6" fill="#ff5f58"/><circle cx="40" cy="20" r="6" fill="#ffbd2e"/><circle cx="60" cy="20" r="6" fill="#18c132"/></svg><svg height="955.24" viewBox="0 0 98 95.524" width="980" x="15" xmlns="http://www.w3.org/2000/svg" xmlns:xlink="http://www.w3.org/1999/xlink" y="50"><style>@keyframes n{0%{transform:translateX(0)}4.21%{transform:translateX(-196px)}13.72%{transform:translateX(-294px)}14.64%{transform:translateX(-392px)}15.08%{transform:translateX(-490px)}15.52%{transform:translateX(-588px)}16.12%{transform:translateX(-686px)}16.71%{transform:translateX(-784px)}16.98%{transform:translateX(-882px)}17.14%{transform:translateX(-980px)}17.62%{transform:translateX(-1078px)}18.6%{transform:translateX(-1176px)}19.15%{transform:translateX(-1274px)}19.65%{transform:translateX(-1372px)}20.56%{transform:translateX(-1470px)}21.12%{transform:translateX(-1568px)}22.74%{transform:translateX(-1666px)}32.08%{transform:translateX(-1960px)}32.1%{transform:translateX(-2058px)}32.15%{transform:translateX(-2352px)}43.2%{transform:translateX(-2548px)}43.21%{transform:translateX(-2744px)}43.22%{transform:translateX(-3038px)}51.64%{transform:translateX(-3332px)}52.47%{transform:translateX(-3724px)}55.37%{transform:translateX(-4018px)}55.38%{transform:translateX(-4214px)}64.36%{transform:translateX(-4508px)}67.33%{transform:translateX(-4900px)}67.34%{transform:translateX(-4998px)}67.61%{transform:translateX(-5096px)}69.98%{transform:translateX(-5292px)}70.13%{transform:translateX(-5390px)}70.14%{transform:translateX(-5488px)}to{transform:translateX(-5586px)}}.a{fill:#282d35}.f,.g{fill:#b9c0cb;white-space:pre}.g{fill:#a8cc8c}.h{fill:#71bef2}.h,.i,.j,.k{white-space:pre}.i{fill:#b9c0cb;font-weight:700}.j,.k{fill:#66c2cd}.k{fill:#dbab79}</style><g font-family="Monaco,Consolas,Menlo,'Bitstream Vera Sans Mono','Powerline Symbols',monospace" font-size="1.67"><defs><symbol id="1"><text y="1.67" class="f">(base)</text><text x="7.014" y="1.67" class="f">yhayun[uniswap-v3-oracle-cli]</text><text x="37.074" y="1.67" class="f">#</text></symbol><symbol id="2"><text y="1.67" class="f">(base)</text><text x="7.014" y="1.67" class="f">yhayun[uniswap-v3-oracle-cli]</text><text x="37.074" y="1.67" class="f">#</text><text x="39.078" y="1.67" class="f">npm</text></symbol><symbol id="3"><text y="1.67" class="f">(base)</text><text x="7.014" y="1.67" class="f">yhayun[uniswap-v3-oracle-cli]</text><text x="37.074" y="1.67" class="f">#</text><text x="39.078" y="1.67" class="f">npm</text><text x="43.086" y="1.67" class="f">run</text></symbol><symbol id="4"><text y="1.67" class="f">(base)</text><text x="7.014" y="1.67" class="f">yhayun[uniswap-v3-oracle-cli]</text><text x="37.074" y="1.67" class="f">#</text><text x="39.078" y="1.67" class="f">npm</text><text x="43.086" y="1.67" class="f">run</text><text x="47.094" y="1.67" class="f">start</text></symbol><symbol id="5"><text y="1.67" class="g">🎉</text><text x="3.006" y="1.67" class="g">✨</text><text x="5.01" y="1.67" class="g">🔥</text><text x="8.016" y="1.67" class="g">Mocked</text><text x="15.03" y="1.67" class="g">Uniswap</text><text x="23.046" y="1.67" class="g">V3</text><text x="26.052" y="1.67" class="g">Oracles</text><text x="34.068" y="1.67" class="g">by:</text><text x="38.076" y="1.67" class="g">🎉</text><text x="41.082" y="1.67" class="g">✨</text><text x="43.086" y="1.67" class="g">🔥</text></symbol><symbol id="6"><text x="3.006" y="1.67" class="h">____</text><text x="8.016" y="1.67" class="h">_</text><text x="32.064" y="1.67" class="h">_</text><text x="43.086" y="1.67" class="h">_</text></symbol><symbol id="7"><text x="2.004" y="1.67" class="h">/</text><text x="4.008" y="1.67" class="h">___|</text><text x="9.018" y="1.67" class="h">|__</text><text x="15.03" y="1.67" class="h">__</text><text x="18.036" y="1.67" class="h">_</text><text x="21.042" y="1.67" class="h">___</text><text x="26.052" y="1.67" class="h">___</text><text x="31.062" y="1.67" class="h">|</text><text x="33.066" y="1.67" class="h">|</text><text x="38.076" y="1.67" class="h">__</text><text x="41.082" y="1.67" class="h">_|</text><text x="44.088" y="1.67" class="h">|__</text><text x="49.098" y="1.67" class="h">___</text></symbol><symbol id="8"><text x="1.002" y="1.67" class="h">|</text><text x="3.006" y="1.67" class="h">|</text><text x="7.014" y="1.67" class="h">|</text><text x="9.018" y="1.67" class="h">&apos;_</text><text x="12.024" y="1.67" class="h">\</text><text x="14.028" y="1.67" class="h">/</text><text x="16.032" y="1.67" class="h">_`</text><text x="19.038" y="1.67" class="h">|/</text><text x="22.044" y="1.67" class="h">_</text><text x="24.048" y="1.67" class="h">\/</text><text x="27.054" y="1.67" class="h">__|</text><text x="31.062" y="1.67" class="h">|</text><text x="33.066" y="1.67" class="h">|</text><text x="37.074" y="1.67" class="h">/</text><text x="39.078" y="1.67" class="h">_`</text><text x="42.084" y="1.67" class="h">|</text><text x="44.088" y="1.67" class="h">&apos;_</text><text x="47.094" y="1.67" class="h">\/</text><text x="50.1" y="1.67" class="h">__|</text></symbol><symbol id="9"><text x="1.002" y="1.67" class="h">|</text><text x="3.006" y="1.67" class="h">|___|</text><text x="9.018" y="1.67" class="h">|</text><text x="11.022" y="1.67" class="h">|</text><text x="13.026" y="1.67" class="h">|</text><text x="15.03" y="1.67" class="h">(_|</text><text x="19.038" y="1.67" class="h">|</text><text x="21.042" y="1.67" class="h">(_)</text><text x="25.05" y="1.67" class="h">\__</text><text x="29.058" y="1.67" class="h">\</text><text x="31.062" y="1.67" class="h">|</text><text x="33.066" y="1.67" class="h">|__|</text><text x="38.076" y="1.67" class="h">(_|</text><text x="42.084" y="1.67" class="h">|</text><text x="44.088" y="1.67" class="h">|_)</text><text x="48.096" y="1.67" class="h">\__</text><text x="52.104" y="1.67" class="h">\</text></symbol><symbol id="10"><text x="2.004" y="1.67" class="h">\____|_|</text><text x="11.022" y="1.67" class="h">|_|\__,_|\___/|___/</text><text x="31.062" y="1.67" class="h">|_____\__,_|_.__/|___/</text></symbol><symbol id="11"><text y="1.67" class="g">?</text><text x="2.004" y="1.67" class="i">Select</text><text x="9.018" y="1.67" class="i">Uniswap</text><text x="17.034" y="1.67" class="i">pool:</text></symbol><symbol id="12"><text x="2.004" y="1.67" class="j">1)</text><text x="5.01" y="1.67" class="j">ETH/USDT</text></symbol><symbol id="13"><text x="2.004" y="1.67" class="f">2)</text><text x="5.01" y="1.67" class="f">USDC/USDT</text></symbol><symbol id="14"><text x="2.004" y="1.67" class="f">3)</text><text x="5.01" y="1.67" class="f">AAVE/ETH</text></symbol><symbol id="15"><text x="2.004" y="1.67" class="f">4)</text><text x="5.01" y="1.67" class="f">DAI/ETH</text></symbol><symbol id="16"><text x="2.004" y="1.67" class="f">5)</text><text x="5.01" y="1.67" class="f">DAI/USDC</text></symbol><symbol id="17"><text x="2.004" y="1.67" class="f">6)</text><text x="5.01" y="1.67" class="f">ETH/USDT</text></symbol><symbol id="18"><text y="1.67" class="f">(Move</text><text x="6.012" y="1.67" class="f">up</text><text x="9.018" y="1.67" class="f">and</text><text x="13.026" y="1.67" class="f">down</text><text x="18.036" y="1.67" class="f">to</text><text x="21.042" y="1.67" class="f">reveal</text><text x="28.056" y="1.67" class="f">more</text><text x="33.066" y="1.67" class="f">choices)</text></symbol><symbol id="19"><text x="2.004" y="1.67" class="f">Answer:</text></symbol><symbol id="20"><text y="1.67" class="g">?</text><text x="2.004" y="1.67" class="i">Select</text><text x="9.018" y="1.67" class="i">Uniswap</text><text x="17.034" y="1.67" class="i">pool:</text><text x="23.046" y="1.67" class="j">ETH/USDT</text></symbol><symbol id="21"><text y="1.67" class="h">You</text><text x="4.008" y="1.67" class="h">selected</text><text x="13.026" y="1.67" class="h">ETH/USDT</text></symbol><symbol id="22"><text y="1.67" class="g">?</text><text x="2.004" y="1.67" class="i">Select</text><text x="9.018" y="1.67" class="i">the</text><text x="13.026" y="1.67" class="i">new</text><text x="17.034" y="1.67" class="i">price</text><text x="23.046" y="1.67" class="f">(0)</text></symbol><symbol id="23"><text y="1.67" class="g">?</text><text x="2.004" y="1.67" class="i">Select</text><text x="9.018" y="1.67" class="i">the</text><text x="13.026" y="1.67" class="i">new</text><text x="17.034" y="1.67" class="i">price</text><text x="23.046" y="1.67" class="f">(0)</text><text x="27.054" y="1.67" class="f">1</text></symbol><symbol id="24"><text y="1.67" class="g">?</text><text x="2.004" y="1.67" class="i">Select</text><text x="9.018" y="1.67" class="i">the</text><text x="13.026" y="1.67" class="i">new</text><text x="17.034" y="1.67" class="i">price</text><text x="23.046" y="1.67" class="f">(0)</text><text x="27.054" y="1.67" class="f">10</text></symbol><symbol id="25"><text y="1.67" class="g">?</text><text x="2.004" y="1.67" class="i">Select</text><text x="9.018" y="1.67" class="i">the</text><text x="13.026" y="1.67" class="i">new</text><text x="17.034" y="1.67" class="i">price</text><text x="23.046" y="1.67" class="j">10</text></symbol><symbol id="26"><text y="1.67" class="h">You</text><text x="4.008" y="1.67" class="h">selected</text><text x="13.026" y="1.67" class="h">10</text></symbol><symbol id="27"><text y="1.67" class="g">?</text><text x="2.004" y="1.67" class="i">Select</text><text x="9.018" y="1.67" class="i">the</text><text x="13.026" y="1.67" class="i">TWAP</text><text x="18.036" y="1.67" class="i">interval</text><text x="27.054" y="1.67" class="i">you</text><text x="31.062" y="1.67" class="i">want</text><text x="36.072" y="1.67" class="i">to</text><text x="39.078" y="1.67" class="i">change</text><text x="46.092" y="1.67" class="f">(0)</text></symbol><symbol id="28"><text y="1.67" class="g">?</text><text x="2.004" y="1.67" class="i">Select</text><text x="9.018" y="1.67" class="i">the</text><text x="13.026" y="1.67" class="i">TWAP</text><text x="18.036" y="1.67" class="i">interval</text><text x="27.054" y="1.67" class="i">you</text><text x="31.062" y="1.67" class="i">want</text><text x="36.072" y="1.67" class="i">to</text><text x="39.078" y="1.67" class="i">change</text><text x="46.092" y="1.67" class="f">(0)</text><text x="50.1" y="1.67" class="f">5</text></symbol><symbol id="29"><text y="1.67" class="g">?</text><text x="2.004" y="1.67" class="i">Select</text><text x="9.018" y="1.67" class="i">the</text><text x="13.026" y="1.67" class="i">TWAP</text><text x="18.036" y="1.67" class="i">interval</text><text x="27.054" y="1.67" class="i">you</text><text x="31.062" y="1.67" class="i">want</text><text x="36.072" y="1.67" class="i">to</text><text x="39.078" y="1.67" class="i">change</text><text x="46.092" y="1.67" class="j">5</text></symbol><symbol id="30"><text y="1.67" class="h">You</text><text x="4.008" y="1.67" class="h">selected</text><text x="13.026" y="1.67" class="h">5</text></symbol><symbol id="31"><text y="1.67" class="f">Pool:</text><text x="7.014" y="1.67" class="f">{</text></symbol><symbol id="32"><text x="2.004" y="1.67" class="f">name:</text><text x="8.016" y="1.67" class="g">&apos;ETH/USDT&apos;</text><text x="18.036" y="1.67" class="f">,</text></symbol><symbol id="33"><text x="2.004" y="1.67" class="f">address:</text><text x="11.022" y="1.67" class="g">&apos;0x4e68ccd3e89f51c3074ca5072bbac773960dfa36&apos;</text><text x="55.11" y="1.67" class="f">,</text></symbol><symbol id="34"><text x="2.004" y="1.67" class="f">decimals:</text><text x="12.024" y="1.67" class="f">{</text><text x="14.028" y="1.67" class="f">token0:</text><text x="22.044" y="1.67" class="k">18</text><text x="24.048" y="1.67" class="f">,</text><text x="26.052" y="1.67" class="f">token1:</text><text x="34.068" y="1.67" class="k">6</text><text x="36.072" y="1.67" class="f">}</text></symbol><symbol id="35"><text y="1.67" class="f">}</text><text x="2.004" y="1.67" class="f">Price:</text><text x="10.02" y="1.67" class="k">10</text><text x="13.026" y="1.67" class="f">Interval:</text><text x="24.048" y="1.67" class="k">5</text></symbol><symbol id="36"><text y="1.67" class="h">Original</text><text x="9.018" y="1.67" class="h">Prices</text><text x="16.032" y="1.67" class="h">0.1000100010001,9.999</text></symbol><symbol id="37"><text y="1.67" class="h">New</text><text x="4.008" y="1.67" class="h">Prices</text><text x="11.022" y="1.67" class="h">0.1000100010001,9.999</text></symbol><symbol id="38"><text y="1.67" class="h">Let&apos;s</text><text x="6.012" y="1.67" class="h">get</text><text x="10.02" y="1.67" class="h">to</text><text x="13.026" y="1.67" class="h">work</text><text x="18.036" y="1.67" class="h">💼</text><text x="21.042" y="1.67" class="h">😏</text><text x="24.048" y="1.67" class="h">...</text></symbol><symbol id="39"><text x="3.006" y="1.67" class="k">____</text><text x="12.024" y="1.67" class="k">_</text><text x="19.038" y="1.67" class="k">_</text><text x="35.07" y="1.67" class="k">_</text></symbol><symbol id="40"><text x="2.004" y="1.67" class="k">/</text><text x="4.008" y="1.67" class="k">___|___|</text><text x="13.026" y="1.67" class="k">|</text><text x="15.03" y="1.67" class="k">___|</text><text x="20.04" y="1.67" class="k">|__</text><text x="25.05" y="1.67" class="k">_</text><text x="27.054" y="1.67" class="k">__</text><text x="30.06" y="1.67" class="k">__</text><text x="33.066" y="1.67" class="k">_|</text><text x="36.072" y="1.67" class="k">|_</text><text x="39.078" y="1.67" class="k">___</text></symbol><symbol id="41"><text x="1.002" y="1.67" class="k">|</text><text x="3.006" y="1.67" class="k">|</text><text x="7.014" y="1.67" class="k">/</text><text x="9.018" y="1.67" class="k">_</text><text x="11.022" y="1.67" class="k">\</text><text x="13.026" y="1.67" class="k">|/</text><text x="16.032" y="1.67" class="k">_</text><text x="18.036" y="1.67" class="k">\</text><text x="20.04" y="1.67" class="k">&apos;_</text><text x="23.046" y="1.67" class="k">\|</text><text x="26.052" y="1.67" class="k">&apos;__/</text><text x="31.062" y="1.67" class="k">_`</text><text x="34.068" y="1.67" class="k">|</text><text x="36.072" y="1.67" class="k">__/</text><text x="40.08" y="1.67" class="k">_</text><text x="42.084" y="1.67" class="k">\</text></symbol><symbol id="42"><text x="1.002" y="1.67" class="k">|</text><text x="3.006" y="1.67" class="k">|__|</text><text x="9.018" y="1.67" class="k">__/</text><text x="13.026" y="1.67" class="k">|</text><text x="16.032" y="1.67" class="k">__/</text><text x="20.04" y="1.67" class="k">|_)</text><text x="24.048" y="1.67" class="k">|</text><text x="26.052" y="1.67" class="k">|</text><text x="28.056" y="1.67" class="k">|</text><text x="30.06" y="1.67" class="k">(_|</text><text x="34.068" y="1.67" class="k">|</text><text x="36.072" y="1.67" class="k">||</text><text x="40.08" y="1.67" class="k">__/</text></symbol><symbol id="43"><text x="2.004" y="1.67" class="k">\____\___|_|\___|_.__/|_|</text><text x="29.058" y="1.67" class="k">\__,_|\__\___|</text></symbol><symbol id="44"><text y="1.67" class="h">You</text><text x="4.008" y="1.67" class="h">are</text><text x="8.016" y="1.67" class="h">a</text><text x="10.02" y="1.67" class="h">shadowy</text><text x="18.036" y="1.67" class="h">super</text><text x="24.048" y="1.67" class="h">code</text><text x="29.058" y="1.67" class="h">🔥</text><text x="32.064" y="1.67" class="h">✨</text><text x="34.068" y="1.67" class="h">😏</text><text x="37.074" y="1.67" class="h">...</text></symbol><symbol id="a"><path fill="transparent" d="M0 0h98v44H0z"/></symbol><symbol id="b"><path fill="#6f7683" d="M0 0h1.102v2.171H0z"/></symbol></defs><path class="a" d="M0 0h98v95.524H0z"/><g style="animation-duration:19.186395s;animation-iteration-count:infinite;animation-name:n;animation-timing-function:steps(1,end)"><svg width="5684"><svg><use xlink:href="#a"/><use xlink:href="#b" x="-.004"/></svg><svg x="98"><use xlink:href="#a"/><use xlink:href="#b" x="-.004"/></svg><svg x="196"><use xlink:href="#a"/><use xlink:href="#b" x="38.996"/><use xlink:href="#1"/></svg><svg x="294"><use xlink:href="#a"/><use xlink:href="#b" x="39.996"/><text y="1.67" class="f">(base)</text><text x="7.014" y="1.67" class="f">yhayun[uniswap-v3-oracle-cli]</text><text x="37.074" y="1.67" class="f">#</text><text x="39.078" y="1.67" class="f">n</text></svg><svg x="392"><use xlink:href="#a"/><use xlink:href="#b" x="40.996"/><text y="1.67" class="f">(base)</text><text x="7.014" y="1.67" class="f">yhayun[uniswap-v3-oracle-cli]</text><text x="37.074" y="1.67" class="f">#</text><text x="39.078" y="1.67" class="f">np</text></svg><svg x="490"><use xlink:href="#a"/><use xlink:href="#b" x="41.996"/><use xlink:href="#2"/></svg><svg x="588"><use xlink:href="#a"/><use xlink:href="#b" x="42.996"/><use xlink:href="#2"/></svg><svg x="686"><use xlink:href="#a"/><use xlink:href="#b" x="43.996"/><text y="1.67" class="f">(base)</text><text x="7.014" y="1.67" class="f">yhayun[uniswap-v3-oracle-cli]</text><text x="37.074" y="1.67" class="f">#</text><text x="39.078" y="1.67" class="f">npm</text><text x="43.086" y="1.67" class="f">r</text></svg><svg x="784"><use xlink:href="#a"/><use xlink:href="#b" x="44.996"/><text y="1.67" class="f">(base)</text><text x="7.014" y="1.67" class="f">yhayun[uniswap-v3-oracle-cli]</text><text x="37.074" y="1.67" class="f">#</text><text x="39.078" y="1.67" class="f">npm</text><text x="43.086" y="1.67" class="f">ru</text></svg><svg x="882"><use xlink:href="#a"/><use xlink:href="#b" x="45.996"/><use xlink:href="#3"/></svg><svg x="980"><use xlink:href="#a"/><use xlink:href="#b" x="46.996"/><use xlink:href="#3"/></svg><svg x="1078"><use xlink:href="#a"/><use xlink:href="#b" x="47.996"/><text y="1.67" class="f">(base)</text><text x="7.014" y="1.67" class="f">yhayun[uniswap-v3-oracle-cli]</text><text x="37.074" y="1.67" class="f">#</text><text x="39.078" y="1.67" class="f">npm</text><text x="43.086" y="1.67" class="f">run</text><text x="47.094" y="1.67" class="f">s</text></svg><svg x="1176"><use xlink:href="#a"/><use xlink:href="#b" x="48.996"/><text y="1.67" class="f">(base)</text><text x="7.014" y="1.67" class="f">yhayun[uniswap-v3-oracle-cli]</text><text x="37.074" y="1.67" class="f">#</text><text x="39.078" y="1.67" class="f">npm</text><text x="43.086" y="1.67" class="f">run</text><text x="47.094" y="1.67" class="f">st</text></svg><svg x="1274"><use xlink:href="#a"/><use xlink:href="#b" x="49.996"/><text y="1.67" class="f">(base)</text><text x="7.014" y="1.67" class="f">yhayun[uniswap-v3-oracle-cli]</text><text x="37.074" y="1.67" class="f">#</text><text x="39.078" y="1.67" class="f">npm</text><text x="43.086" y="1.67" class="f">run</text><text x="47.094" y="1.67" class="f">sta</text></svg><svg x="1372"><use xlink:href="#a"/><use xlink:href="#b" x="50.996"/><text y="1.67" class="f">(base)</text><text x="7.014" y="1.67" class="f">yhayun[uniswap-v3-oracle-cli]</text><text x="37.074" y="1.67" class="f">#</text><text x="39.078" y="1.67" class="f">npm</text><text x="43.086" y="1.67" class="f">run</text><text x="47.094" y="1.67" class="f">star</text></svg><svg x="1470"><use xlink:href="#a"/><use xlink:href="#b" x="51.996"/><use xlink:href="#4"/></svg><svg x="1568"><use xlink:href="#a"/><use xlink:href="#b" x="-.004" y="2.146"/><use xlink:href="#4"/></svg><svg x="1666"><use xlink:href="#a"/><use xlink:href="#b" x="-.004" y="10.83"/><use xlink:href="#4"/><text y="6.012" class="f">&gt;</text><text x="2.004" y="6.012" class="f">start</text><text y="8.183" class="f">&gt;</text><text x="2.004" y="8.183" class="f">ts-node</text><text x="10.02" y="8.183" class="f">--files</text><text x="18.036" y="8.183" class="f">index.ts</text></svg><svg x="1764"><use xlink:href="#a"/><use xlink:href="#b" x="-.004" y="10.83"/></svg><svg x="1862"><use xlink:href="#a"/><use xlink:href="#b" x="-.004"/></svg><svg x="1960"><use xlink:href="#a"/><use xlink:href="#b" x="-.004" y="2.146"/><use xlink:href="#5"/></svg><svg x="2058"><use xlink:href="#a"/><use xlink:href="#b" x="-.004" y="15.172"/><use xlink:href="#5"/><use xlink:href="#6" y="2.171"/><use xlink:href="#7" y="4.342"/><use xlink:href="#8" y="6.513"/><use xlink:href="#9" y="8.684"/><use xlink:href="#10" y="10.855"/></svg><svg x="2156"><use xlink:href="#a"/><use xlink:href="#b" x="9.996" y="32.54"/><use xlink:href="#5"/><use xlink:href="#6" y="2.171"/><use xlink:href="#7" y="4.342"/><use xlink:href="#8" y="6.513"/><use xlink:href="#9" y="8.684"/><use xlink:href="#10" y="10.855"/><use xlink:href="#11" y="15.197"/><use xlink:href="#12" y="17.368"/><use xlink:href="#13" y="19.539"/><use xlink:href="#14" y="21.71"/><use xlink:href="#15" y="23.881"/><use xlink:href="#16" y="26.052"/><use xlink:href="#17" y="28.223"/><use xlink:href="#18" y="30.394"/><use xlink:href="#19" y="32.565"/></svg><svg x="2254"><use xlink:href="#a"/><use xlink:href="#b" x="-.004" y="32.54"/><use xlink:href="#5"/><use xlink:href="#6" y="2.171"/><use xlink:href="#7" y="4.342"/><use xlink:href="#8" y="6.513"/><use xlink:href="#9" y="8.684"/><use xlink:href="#10" y="10.855"/><use xlink:href="#11" y="15.197"/><use xlink:href="#12" y="17.368"/><use xlink:href="#13" y="19.539"/><use xlink:href="#14" y="21.71"/><use xlink:href="#15" y="23.881"/><use xlink:href="#16" y="26.052"/><use xlink:href="#17" y="28.223"/><use xlink:href="#18" y="30.394"/><use xlink:href="#19" y="32.565"/></svg><svg x="2352"><use xlink:href="#a"/><use xlink:href="#b" x="9.996" y="32.54"/><use xlink:href="#5"/><use xlink:href="#6" y="2.171"/><use xlink:href="#7" y="4.342"/><use xlink:href="#8" y="6.513"/><use xlink:href="#9" y="8.684"/><use xlink:href="#10" y="10.855"/><use xlink:href="#11" y="15.197"/><use xlink:href="#12" y="17.368"/><use xlink:href="#13" y="19.539"/><use xlink:href="#14" y="21.71"/><use xlink:href="#15" y="23.881"/><use xlink:href="#16" y="26.052"/><use xlink:href="#17" y="28.223"/><use xlink:href="#18" y="30.394"/><use xlink:href="#19" y="32.565"/></svg><svg x="2450"><use xlink:href="#a"/><use xlink:href="#b" x="-.004" y="15.172"/><use xlink:href="#5"/><use xlink:href="#6" y="2.171"/><use xlink:href="#7" y="4.342"/><use xlink:href="#8" y="6.513"/><use xlink:href="#9" y="8.684"/><use xlink:href="#10" y="10.855"/></svg><svg x="2548"><use xlink:href="#a"/><use xlink:href="#b" x="30.996" y="15.172"/><use xlink:href="#5"/><use xlink:href="#6" y="2.171"/><use xlink:href="#7" y="4.342"/><use xlink:href="#8" y="6.513"/><use xlink:href="#9" y="8.684"/><use xlink:href="#10" y="10.855"/><use xlink:href="#20" y="15.197"/></svg><svg x="2646"><use xlink:href="#a"/><use xlink:href="#b" x="30.996" y="15.172"/><use xlink:href="#5"/><use xlink:href="#6" y="2.171"/><use xlink:href="#7" y="4.342"/><use xlink:href="#8" y="6.513"/><use xlink:href="#9" y="8.684"/><use xlink:href="#10" y="10.855"/><use xlink:href="#20" y="15.197"/></svg><svg x="2744"><use xlink:href="#a"/><use xlink:href="#b" x="-.004" y="17.343"/><use xlink:href="#5"/><use xlink:href="#6" y="2.171"/><use xlink:href="#7" y="4.342"/><use xlink:href="#8" y="6.513"/><use xlink:href="#9" y="8.684"/><use xlink:href="#10" y="10.855"/><use xlink:href="#20" y="15.197"/></svg><svg x="2842"><use xlink:href="#a"/><use xlink:href="#b" x="-.004" y="19.514"/><use xlink:href="#5"/><use xlink:href="#6" y="2.171"/><use xlink:href="#7" y="4.342"/><use xlink:href="#8" y="6.513"/><use xlink:href="#9" y="8.684"/><use xlink:href="#10" y="10.855"/><use xlink:href="#20" y="15.197"/><use xlink:href="#21" y="17.368"/></svg><svg x="2940"><use xlink:href="#a"/><use xlink:href="#b" x="-.004" y="19.514"/><use xlink:href="#5"/><use xlink:href="#6" y="2.171"/><use xlink:href="#7" y="4.342"/><use xlink:href="#8" y="6.513"/><use xlink:href="#9" y="8.684"/><use xlink:href="#10" y="10.855"/><use xlink:href="#20" y="15.197"/><use xlink:href="#21" y="17.368"/><use xlink:href="#22" y="19.539"/></svg><svg x="3038"><use xlink:href="#a"/><use xlink:href="#b" x="26.996" y="19.514"/><use xlink:href="#5"/><use xlink:href="#6" y="2.171"/><use xlink:href="#7" y="4.342"/><use xlink:href="#8" y="6.513"/><use xlink:href="#9" y="8.684"/><use xlink:href="#10" y="10.855"/><use xlink:href="#20" y="15.197"/><use xlink:href="#21" y="17.368"/><use xlink:href="#22" y="19.539"/></svg><svg x="3136"><use xlink:href="#a"/><use xlink:href="#b" x="-.004" y="19.514"/><use xlink:href="#5"/><use xlink:href="#6" y="2.171"/><use xlink:href="#7" y="4.342"/><use xlink:href="#8" y="6.513"/><use xlink:href="#9" y="8.684"/><use xlink:href="#10" y="10.855"/><use xlink:href="#20" y="15.197"/><use xlink:href="#21" y="17.368"/></svg><svg x="3234"><use xlink:href="#a"/><use xlink:href="#b" x="27.996" y="19.514"/><use xlink:href="#5"/><use xlink:href="#6" y="2.171"/><use xlink:href="#7" y="4.342"/><use xlink:href="#8" y="6.513"/><use xlink:href="#9" y="8.684"/><use xlink:href="#10" y="10.855"/><use xlink:href="#20" y="15.197"/><use xlink:href="#21" y="17.368"/><use xlink:href="#23" y="19.539"/></svg><svg x="3332"><use xlink:href="#a"/><use xlink:href="#b" x="27.996" y="19.514"/><use xlink:href="#5"/><use xlink:href="#6" y="2.171"/><use xlink:href="#7" y="4.342"/><use xlink:href="#8" y="6.513"/><use xlink:href="#9" y="8.684"/><use xlink:href="#10" y="10.855"/><use xlink:href="#20" y="15.197"/><use xlink:href="#21" y="17.368"/><use xlink:href="#23" y="19.539"/></svg><svg x="3430"><use xlink:href="#a"/><use xlink:href="#b" x="-.004" y="19.514"/><use xlink:href="#5"/><use xlink:href="#6" y="2.171"/><use xlink:href="#7" y="4.342"/><use xlink:href="#8" y="6.513"/><use xlink:href="#9" y="8.684"/><use xlink:href="#10" y="10.855"/><use xlink:href="#20" y="15.197"/><use xlink:href="#21" y="17.368"/></svg><svg x="3528"><use xlink:href="#a"/><use xlink:href="#b" x="28.996" y="19.514"/><use xlink:href="#5"/><use xlink:href="#6" y="2.171"/><use xlink:href="#7" y="4.342"/><use xlink:href="#8" y="6.513"/><use xlink:href="#9" y="8.684"/><use xlink:href="#10" y="10.855"/><use xlink:href="#20" y="15.197"/><use xlink:href="#21" y="17.368"/><use xlink:href="#24" y="19.539"/></svg><svg x="3626"><use xlink:href="#a"/><use xlink:href="#b" x="-.004" y="19.514"/><use xlink:href="#5"/><use xlink:href="#6" y="2.171"/><use xlink:href="#7" y="4.342"/><use xlink:href="#8" y="6.513"/><use xlink:href="#9" y="8.684"/><use xlink:href="#10" y="10.855"/><use xlink:href="#20" y="15.197"/><use xlink:href="#21" y="17.368"/><use xlink:href="#24" y="19.539"/></svg><svg x="3724"><use xlink:href="#a"/><use xlink:href="#b" x="28.996" y="19.514"/><use xlink:href="#5"/><use xlink:href="#6" y="2.171"/><use xlink:href="#7" y="4.342"/><use xlink:href="#8" y="6.513"/><use xlink:href="#9" y="8.684"/><use xlink:href="#10" y="10.855"/><use xlink:href="#20" y="15.197"/><use xlink:href="#21" y="17.368"/><use xlink:href="#24" y="19.539"/></svg><svg x="3822"><use xlink:href="#a"/><use xlink:href="#b" x="-.004" y="19.514"/><use xlink:href="#5"/><use xlink:href="#6" y="2.171"/><use xlink:href="#7" y="4.342"/><use xlink:href="#8" y="6.513"/><use xlink:href="#9" y="8.684"/><use xlink:href="#10" y="10.855"/><use xlink:href="#20" y="15.197"/><use xlink:href="#21" y="17.368"/></svg><svg x="3920"><use xlink:href="#a"/><use xlink:href="#b" x="-.004" y="21.685"/><use xlink:href="#5"/><use xlink:href="#6" y="2.171"/><use xlink:href="#7" y="4.342"/><use xlink:href="#8" y="6.513"/><use xlink:href="#9" y="8.684"/><use xlink:href="#10" y="10.855"/><use xlink:href="#20" y="15.197"/><use xlink:href="#21" y="17.368"/><use xlink:href="#25" y="19.539"/></svg><svg x="4018"><use xlink:href="#a"/><use xlink:href="#b" x="-.004" y="23.856"/><use xlink:href="#5"/><use xlink:href="#6" y="2.171"/><use xlink:href="#7" y="4.342"/><use xlink:href="#8" y="6.513"/><use xlink:href="#9" y="8.684"/><use xlink:href="#10" y="10.855"/><use xlink:href="#20" y="15.197"/><use xlink:href="#21" y="17.368"/><use xlink:href="#25" y="19.539"/><use xlink:href="#26" y="21.71"/></svg><svg x="4116"><use xlink:href="#a"/><use xlink:href="#b" x="49.996" y="23.856"/><use xlink:href="#5"/><use xlink:href="#6" y="2.171"/><use xlink:href="#7" y="4.342"/><use xlink:href="#8" y="6.513"/><use xlink:href="#9" y="8.684"/><use xlink:href="#10" y="10.855"/><use xlink:href="#20" y="15.197"/><use xlink:href="#21" y="17.368"/><use xlink:href="#25" y="19.539"/><use xlink:href="#26" y="21.71"/><use xlink:href="#27" y="23.881"/></svg><svg x="4214"><use xlink:href="#a"/><use xlink:href="#b" x="49.996" y="23.856"/><use xlink:href="#5"/><use xlink:href="#6" y="2.171"/><use xlink:href="#7" y="4.342"/><use xlink:href="#8" y="6.513"/><use xlink:href="#9" y="8.684"/><use xlink:href="#10" y="10.855"/><use xlink:href="#20" y="15.197"/><use xlink:href="#21" y="17.368"/><use xlink:href="#25" y="19.539"/><use xlink:href="#26" y="21.71"/><use xlink:href="#27" y="23.881"/></svg><svg x="4312"><use xlink:href="#a"/><use xlink:href="#b" x="-.004" y="23.856"/><use xlink:href="#5"/><use xlink:href="#6" y="2.171"/><use xlink:href="#7" y="4.342"/><use xlink:href="#8" y="6.513"/><use xlink:href="#9" y="8.684"/><use xlink:href="#10" y="10.855"/><use xlink:href="#20" y="15.197"/><use xlink:href="#21" y="17.368"/><use xlink:href="#25" y="19.539"/><use xlink:href="#26" y="21.71"/></svg><svg x="4410"><use xlink:href="#a"/><use xlink:href="#b" x="-.004" y="23.856"/><use xlink:href="#5"/><use xlink:href="#6" y="2.171"/><use xlink:href="#7" y="4.342"/><use xlink:href="#8" y="6.513"/><use xlink:href="#9" y="8.684"/><use xlink:href="#10" y="10.855"/><use xlink:href="#20" y="15.197"/><use xlink:href="#21" y="17.368"/><use xlink:href="#25" y="19.539"/><use xlink:href="#26" y="21.71"/><use xlink:href="#28" y="23.881"/></svg><svg x="4508"><use xlink:href="#a"/><use xlink:href="#b" x="50.996" y="23.856"/><use xlink:href="#5"/><use xlink:href="#6" y="2.171"/><use xlink:href="#7" y="4.342"/><use xlink:href="#8" y="6.513"/><use xlink:href="#9" y="8.684"/><use xlink:href="#10" y="10.855"/><use xlink:href="#20" y="15.197"/><use xlink:href="#21" y="17.368"/><use xlink:href="#25" y="19.539"/><use xlink:href="#26" y="21.71"/><use xlink:href="#28" y="23.881"/></svg><svg x="4606"><use xlink:href="#a"/><use xlink:href="#b" x="-.004" y="23.856"/><use xlink:href="#5"/><use xlink:href="#6" y="2.171"/><use xlink:href="#7" y="4.342"/><use xlink:href="#8" y="6.513"/><use xlink:href="#9" y="8.684"/><use xlink:href="#10" y="10.855"/><use xlink:href="#20" y="15.197"/><use xlink:href="#21" y="17.368"/><use xlink:href="#25" y="19.539"/><use xlink:href="#26" y="21.71"/></svg><svg x="4704"><use xlink:href="#a"/><use xlink:href="#b" x="46.996" y="23.856"/><use xlink:href="#5"/><use xlink:href="#6" y="2.171"/><use xlink:href="#7" y="4.342"/><use xlink:href="#8" y="6.513"/><use xlink:href="#9" y="8.684"/><use xlink:href="#10" y="10.855"/><use xlink:href="#20" y="15.197"/><use xlink:href="#21" y="17.368"/><use xlink:href="#25" y="19.539"/><use xlink:href="#26" y="21.71"/><use xlink:href="#29" y="23.881"/></svg><svg x="4802"><use xlink:href="#a"/><use xlink:href="#b" x="-.004" y="26.027"/><use xlink:href="#5"/><use xlink:href="#6" y="2.171"/><use xlink:href="#7" y="4.342"/><use xlink:href="#8" y="6.513"/><use xlink:href="#9" y="8.684"/><use xlink:href="#10" y="10.855"/><use xlink:href="#20" y="15.197"/><use xlink:href="#21" y="17.368"/><use xlink:href="#25" y="19.539"/><use xlink:href="#26" y="21.71"/><use xlink:href="#29" y="23.881"/></svg><svg x="4900"><use xlink:href="#a"/><use xlink:href="#b" x="-.004" y="28.198"/><use xlink:href="#5"/><use xlink:href="#6" y="2.171"/><use xlink:href="#7" y="4.342"/><use xlink:href="#8" y="6.513"/><use xlink:href="#9" y="8.684"/><use xlink:href="#10" y="10.855"/><use xlink:href="#20" y="15.197"/><use xlink:href="#21" y="17.368"/><use xlink:href="#25" y="19.539"/><use xlink:href="#26" y="21.71"/><use xlink:href="#29" y="23.881"/><use xlink:href="#30" y="26.052"/></svg><svg x="4998"><use xlink:href="#a"/><use xlink:href="#b" x="-.004" y="39.053"/><use xlink:href="#5"/><use xlink:href="#6" y="2.171"/><use xlink:href="#7" y="4.342"/><use xlink:href="#8" y="6.513"/><use xlink:href="#9" y="8.684"/><use xlink:href="#10" y="10.855"/><use xlink:href="#20" y="15.197"/><use xlink:href="#21" y="17.368"/><use xlink:href="#25" y="19.539"/><use xlink:href="#26" y="21.71"/><use xlink:href="#29" y="23.881"/><use xlink:href="#30" y="26.052"/><use xlink:href="#31" y="28.223"/><use xlink:href="#32" y="30.394"/><use xlink:href="#33" y="32.565"/><use xlink:href="#34" y="34.736"/><use xlink:href="#35" y="36.907"/></svg><svg x="5096"><use xlink:href="#a"/><use xlink:href="#b" x="-.004" y="41.224"/><use xlink:href="#5"/><use xlink:href="#6" y="2.171"/><use xlink:href="#7" y="4.342"/><use xlink:href="#8" y="6.513"/><use xlink:href="#9" y="8.684"/><use xlink:href="#10" y="10.855"/><use xlink:href="#20" y="15.197"/><use xlink:href="#21" y="17.368"/><use xlink:href="#25" y="19.539"/><use xlink:href="#26" y="21.71"/><use xlink:href="#29" y="23.881"/><use xlink:href="#30" y="26.052"/><use xlink:href="#31" y="28.223"/><use xlink:href="#32" y="30.394"/><use xlink:href="#33" y="32.565"/><use xlink:href="#34" y="34.736"/><use xlink:href="#35" y="36.907"/><use xlink:href="#36" y="39.078"/></svg><svg x="5194"><use xlink:href="#a"/><use xlink:href="#b" x="-.004" y="45.566"/><use xlink:href="#5"/><use xlink:href="#6" y="2.171"/><use xlink:href="#7" y="4.342"/><use xlink:href="#8" y="6.513"/><use xlink:href="#9" y="8.684"/><use xlink:href="#10" y="10.855"/><use xlink:href="#20" y="15.197"/><use xlink:href="#21" y="17.368"/><use xlink:href="#25" y="19.539"/><use xlink:href="#26" y="21.71"/><use xlink:href="#29" y="23.881"/><use xlink:href="#30" y="26.052"/><use xlink:href="#31" y="28.223"/><use xlink:href="#32" y="30.394"/><use xlink:href="#33" y="32.565"/><use xlink:href="#34" y="34.736"/><use xlink:href="#35" y="36.907"/><use xlink:href="#36" y="39.078"/><use xlink:href="#37" y="41.249"/><use xlink:href="#38" y="43.42"/></svg><svg x="5292"><use xlink:href="#a"/><use xlink:href="#b" x="-.004" y="60.763"/><use xlink:href="#5"/><use xlink:href="#6" y="2.171"/><use xlink:href="#7" y="4.342"/><use xlink:href="#8" y="6.513"/><use xlink:href="#9" y="8.684"/><use xlink:href="#10" y="10.855"/><use xlink:href="#20" y="15.197"/><use xlink:href="#21" y="17.368"/><use xlink:href="#25" y="19.539"/><use xlink:href="#26" y="21.71"/><use xlink:href="#29" y="23.881"/><use xlink:href="#30" y="26.052"/><use xlink:href="#31" y="28.223"/><use xlink:href="#32" y="30.394"/><use xlink:href="#33" y="32.565"/><use xlink:href="#34" y="34.736"/><use xlink:href="#35" y="36.907"/><use xlink:href="#36" y="39.078"/><use xlink:href="#37" y="41.249"/><use xlink:href="#38" y="43.42"/><use xlink:href="#39" y="45.591"/><use xlink:href="#40" y="47.762"/><use xlink:href="#41" y="49.933"/><use xlink:href="#42" y="52.104"/><use xlink:href="#43" y="54.275"/><use xlink:href="#44" y="58.617"/></svg><svg x="5390"><use xlink:href="#a"/><use xlink:href="#b" x="-.004" y="60.763"/><use xlink:href="#5"/><use xlink:href="#6" y="2.171"/><use xlink:href="#7" y="4.342"/><use xlink:href="#8" y="6.513"/><use xlink:href="#9" y="8.684"/><use xlink:href="#10" y="10.855"/><use xlink:href="#20" y="15.197"/><use xlink:href="#21" y="17.368"/><use xlink:href="#25" y="19.539"/><use xlink:href="#26" y="21.71"/><use xlink:href="#29" y="23.881"/><use xlink:href="#30" y="26.052"/><use xlink:href="#31" y="28.223"/><use xlink:href="#32" y="30.394"/><use xlink:href="#33" y="32.565"/><use xlink:href="#34" y="34.736"/><use xlink:href="#35" y="36.907"/><use xlink:href="#36" y="39.078"/><use xlink:href="#37" y="41.249"/><use xlink:href="#38" y="43.42"/><use xlink:href="#39" y="45.591"/><use xlink:href="#40" y="47.762"/><use xlink:href="#41" y="49.933"/><use xlink:href="#42" y="52.104"/><use xlink:href="#43" y="54.275"/><use xlink:href="#44" y="58.617"/></svg><svg x="5488"><use xlink:href="#a"/><use xlink:href="#b" x="38.996" y="60.763"/><use xlink:href="#5"/><use xlink:href="#6" y="2.171"/><use xlink:href="#7" y="4.342"/><use xlink:href="#8" y="6.513"/><use xlink:href="#9" y="8.684"/><use xlink:href="#10" y="10.855"/><use xlink:href="#20" y="15.197"/><use xlink:href="#21" y="17.368"/><use xlink:href="#25" y="19.539"/><use xlink:href="#26" y="21.71"/><use xlink:href="#29" y="23.881"/><use xlink:href="#30" y="26.052"/><use xlink:href="#31" y="28.223"/><use xlink:href="#32" y="30.394"/><use xlink:href="#33" y="32.565"/><use xlink:href="#34" y="34.736"/><use xlink:href="#35" y="36.907"/><use xlink:href="#36" y="39.078"/><use xlink:href="#37" y="41.249"/><use xlink:href="#38" y="43.42"/><use xlink:href="#39" y="45.591"/><use xlink:href="#40" y="47.762"/><use xlink:href="#41" y="49.933"/><use xlink:href="#42" y="52.104"/><use xlink:href="#43" y="54.275"/><use xlink:href="#44" y="58.617"/><use xlink:href="#1" y="60.788"/></svg><svg x="5586"><use xlink:href="#a"/><use xlink:href="#b" x="-.004" y="62.934"/><use xlink:href="#5"/><use xlink:href="#6" y="2.171"/><use xlink:href="#7" y="4.342"/><use xlink:href="#8" y="6.513"/><use xlink:href="#9" y="8.684"/><use xlink:href="#10" y="10.855"/><use xlink:href="#20" y="15.197"/><use xlink:href="#21" y="17.368"/><use xlink:href="#25" y="19.539"/><use xlink:href="#26" y="21.71"/><use xlink:href="#29" y="23.881"/><use xlink:href="#30" y="26.052"/><use xlink:href="#31" y="28.223"/><use xlink:href="#32" y="30.394"/><use xlink:href="#33" y="32.565"/><use xlink:href="#34" y="34.736"/><use xlink:href="#35" y="36.907"/><use xlink:href="#36" y="39.078"/><use xlink:href="#37" y="41.249"/><use xlink:href="#38" y="43.42"/><use xlink:href="#39" y="45.591"/><use xlink:href="#40" y="47.762"/><use xlink:href="#41" y="49.933"/><use xlink:href="#42" y="52.104"/><use xlink:href="#43" y="54.275"/><use xlink:href="#44" y="58.617"/><use xlink:href="#1" y="60.788"/></svg></svg></g></g></svg></svg>